<?xml version="1.0" encoding="UTF-8"?><svg id="Layer_2" xmlns="http://www.w3.org/2000/svg" xmlns:xlink="http://www.w3.org/1999/xlink" viewBox="0 0 534.23 93.13"><defs><style>.cls-1{fill:#00a77c;}.cls-2{fill:#2c3c8c;}.cls-3{fill:#273694;}.cls-4{fill:url(#New_Gradient_Swatch_5);}</style><linearGradient id="New_Gradient_Swatch_5" x1="359.57" y1="74.81" x2="396.99" y2="11.78" gradientTransform="matrix(1, 0, 0, 1, 0, 0)" gradientUnits="userSpaceOnUse"><stop offset="0" stop-color="#2c3c8c"/><stop offset=".5" stop-color="#00b1db"/><stop offset="1" stop-color="#00a77c"/></linearGradient><symbol id="New_Symbol" viewBox="0 0 605.56 105.56"><g><path class="cls-2" d="M118.34,58.42c-11.05,0-19.95-9-19.95-20.11s8.91-20.14,19.95-20.14,19.95,8.99,19.95,20.14-8.95,20.11-19.95,20.11m26.9-47.31C137.84,3.72,128.88,0,118.26,0s-19.62,3.72-26.9,11.11c-7.36,7.39-11,16.47-11,27.2s3.64,19.77,11,27.17c7.28,7.39,16.27,11.11,26.9,11.11s19.58-3.72,26.98-11.11c7.36-7.39,11.04-16.48,11.04-27.17s-3.68-19.81-11.04-27.2"/><path class="cls-2" d="M206.12,57.45c-11.04,0-19.99-9-19.99-20.15s8.95-20.11,19.99-20.11,19.91,9,19.91,20.11-8.91,20.15-19.91,20.15M226.03,2.07V11.07C220.59,3.72,212.94,0,203.11,0s-18.53,3.63-25.43,10.9c-6.86,7.27-10.33,16.01-10.33,26.23s3.43,19.13,10.29,26.32c6.82,7.18,15.31,10.77,25.47,10.77s17.49-3.63,22.92-10.98v7.81c0,5.7-1.63,10.1-5.02,13.18-3.3,3.09-7.95,4.65-13.76,4.65-8.91,0-15.14-3.38-18.78-10.14l-15.81,9.12c3.18,5.79,7.7,10.18,13.6,13.18,5.85,3,13.26,4.52,21.04,4.52,10.29,0,18.57-2.96,25.85-8.83,7.36-5.92,11-14.49,11-25.68V2.07h-18.11Z"/><path class="cls-2" d="M323.71,7.98C318.61,2.7,312.12,0,304.26,0c-9.75,0-16.9,3.42-21.38,10.18V2.07h-18.53V74.56h18.53V35.4c0-6,1.42-10.48,4.31-13.48,2.85-3,6.69-4.48,11.46-4.48,4.31,0,7.78,1.27,10.33,3.8,2.6,2.58,3.89,6.25,3.89,11.11v42.2h18.53V30.03c0-9.38-2.59-16.73-7.7-22.05"/><polygon class="cls-2" points="467.15 56.98 497.6 14.49 497.6 2.07 443.85 2.07 443.85 19.6 472.67 19.6 442.43 62.09 442.43 74.56 499.03 74.56 499.03 56.98 467.15 56.98"/><path class="cls-2" d="M531.07,31.47c1.05-4.61,3.18-8.24,6.44-10.81,3.27-2.54,7.36-3.8,12.34-3.8,4.23,0,7.95,1.18,11.25,3.63,3.3,2.41,5.48,6.04,6.57,10.98h-36.6Zm55.09,6.84c0-10.85-3.43-19.94-10.29-27.24C569.05,3.72,560.39,0,549.85,0c-11.08,0-20.2,3.68-27.28,10.98-7.07,7.27-10.62,16.39-10.62,27.33s3.6,20.11,10.75,27.37c7.19,7.27,16.69,10.9,28.57,10.9,13.81,0,24.22-5.19,31.33-15.54l-14.93-8.66c-3.64,4.82-9.04,7.22-16.1,7.22-11,0-17.74-4.52-20.25-13.6h54.13c.46-2.75,.71-5.28,.71-7.69"/><path class="cls-2" d="M55.08,48.35l15.6,9.13c-6.57,11.4-18.81,19.09-32.79,19.09C17,76.56,0,59.4,0,38.29S17,.03,37.89,.03C51.87,.03,64.11,7.71,70.68,19.12l-15.6,9.12c-3.44-5.98-9.86-10.02-17.19-10.02-10.96,0-19.87,9.01-19.87,20.07s8.91,20.07,19.87,20.07c7.33,0,13.75-4.03,17.19-10.02"/><polygon class="cls-1" points="424.14 14.27 424.14 2.07 405.61 2.07 405.61 25.1 424.14 14.27"/><path class="cls-4" d="M357.59,11.11c-6.82,7.39-10.25,16.47-10.25,27.2s3.43,19.77,10.25,27.16c6.86,7.39,15.06,11.11,24.64,11.11s17.82-3.55,23.38-10.6v-26.01c-.86,10.35-9.4,18.44-19.87,18.44-11.04,0-19.95-8.99-19.95-20.15s8.91-20.15,19.95-20.15c6.91,0,12.99,3.54,16.56,8.91l3.31-1.93V10.6c-5.56-7.06-13.35-10.6-23.38-10.6s-17.78,3.72-24.64,11.11"/><path class="cls-1" d="M405.61,74.56h18.53V25.81l-18.52,10.83c.04,.54,.08,1.08,.08,1.63s-.04,1.14-.08,1.7v34.58Z"/><g><polygon class="cls-3" points="595.1 6.73 592.45 6.73 592.45 13.93 590.32 13.93 590.32 6.73 587.71 6.73 587.71 5.08 595.1 5.08 595.1 6.73"/><polygon class="cls-3" points="598.81 5.08 600.79 11.24 602.76 5.08 605.56 5.08 605.56 13.93 603.42 13.93 603.42 11.86 603.63 7.63 601.49 13.93 600.08 13.93 597.94 7.63 598.15 11.86 598.15 13.93 596.01 13.93 596.01 5.08 598.81 5.08"/></g></g></symbol></defs><g id="Layer_1-2"><use width="605.56" height="105.56" transform="scale(.88)" xlink:href="#New_Symbol"/></g></svg>