<?xml version="1.0" encoding="UTF-8"?><svg id="Layer_2" xmlns="http://www.w3.org/2000/svg" xmlns:xlink="http://www.w3.org/1999/xlink" viewBox="0 0 73.43 73.22"><defs><style>.cls-1{fill:#00a77c;}.cls-2{fill:url(#New_Gradient_Swatch_5);}</style><linearGradient id="New_Gradient_Swatch_5" x1="11.69" y1="71.52" x2="47.47" y2="11.27" gradientTransform="matrix(1, 0, 0, 1, 0, 0)" gradientUnits="userSpaceOnUse"><stop offset="0" stop-color="#2c3c8c"/><stop offset=".5" stop-color="#00b1db"/><stop offset="1" stop-color="#00a77c"/></linearGradient></defs><g id="Layer_1-2"><g><polygon class="cls-1" points="73.43 13.64 73.43 1.98 55.71 1.98 55.71 24 73.43 13.64"/><path class="cls-2" d="M9.8,10.62C3.28,17.69,0,26.37,0,36.63s3.28,18.9,9.8,25.97c6.56,7.07,14.4,10.62,23.55,10.62s17.04-3.39,22.36-10.13v-24.86c-.82,9.9-8.98,17.63-19,17.63-10.56,0-19.08-8.6-19.08-19.26s8.52-19.26,19.08-19.26c6.61,0,12.41,3.39,15.84,8.52l3.16-1.85V10.14C50.39,3.39,42.95,0,33.35,0S16.36,3.56,9.8,10.62"/><path class="cls-1" d="M55.71,71.28h17.71V24.67l-17.71,10.35c.04,.52,.08,1.03,.08,1.56s-.04,1.09-.08,1.63v33.06Z"/></g></g></svg>