<?xml version="1.0" encoding="UTF-8"?><svg width="190px" height="80px" id="Layer_2" xmlns="http://www.w3.org/2000/svg" viewBox="0 0 353.36 61.92"><defs><style>.cls-1{fill:#fff;}</style></defs><g id="Layer_1-2"><g><path class="cls-1" d="M69.42,34.27c-6.48,0-11.7-5.28-11.7-11.8s5.22-11.82,11.7-11.82,11.7,5.28,11.7,11.82-5.25,11.8-11.7,11.8m15.78-27.75C80.85,2.18,75.6,0,69.37,0s-11.51,2.18-15.78,6.52c-4.32,4.34-6.45,9.66-6.45,15.96s2.14,11.6,6.45,15.93c4.27,4.34,9.54,6.51,15.78,6.51s11.48-2.18,15.83-6.51c4.32-4.34,6.48-9.66,6.48-15.93s-2.16-11.62-6.48-15.96"/><path class="cls-1" d="M120.9,33.7c-6.48,0-11.73-5.28-11.73-11.82s5.25-11.8,11.73-11.8,11.68,5.28,11.68,11.8-5.23,11.82-11.68,11.82M132.58,1.21V6.49C129.39,2.18,124.9,0,119.13,0s-10.87,2.13-14.92,6.39c-4.02,4.26-6.06,9.39-6.06,15.39s2.01,11.22,6.03,15.44c4,4.21,8.98,6.32,14.94,6.32s10.26-2.13,13.45-6.44v4.58c0,3.35-.96,5.92-2.94,7.73-1.94,1.81-4.66,2.73-8.07,2.73-5.23,0-8.88-1.98-11.02-5.95l-9.27,5.35c1.86,3.39,4.51,5.97,7.97,7.73,3.43,1.76,7.78,2.65,12.34,2.65,6.04,0,10.89-1.73,15.16-5.18,4.32-3.47,6.45-8.5,6.45-15.07V1.21h-10.62Z"/><path class="cls-1" d="M189.88,4.68C186.88,1.59,183.08,0,178.47,0c-5.72,0-9.91,2.01-12.54,5.97V1.22h-10.87V43.73h10.87V20.76c0-3.52,.84-6.15,2.53-7.9,1.67-1.76,3.93-2.63,6.72-2.63,2.53,0,4.56,.74,6.06,2.23,1.52,1.51,2.28,3.67,2.28,6.52v24.75h10.87V17.62c0-5.5-1.52-9.81-4.51-12.93"/><polygon class="cls-1" points="274.01 33.42 291.88 8.5 291.88 1.21 260.35 1.21 260.35 11.5 277.25 11.5 259.51 36.42 259.51 43.73 292.71 43.73 292.71 33.42 274.01 33.42"/><path class="cls-1" d="M311.5,18.46c.61-2.7,1.86-4.83,3.78-6.34,1.92-1.49,4.32-2.23,7.24-2.23,2.48,0,4.66,.69,6.6,2.13,1.94,1.41,3.21,3.54,3.85,6.44h-21.47Zm32.31,4.01c0-6.37-2.01-11.7-6.04-15.98C333.78,2.18,328.7,0,322.52,0,316.02,0,310.67,2.16,306.52,6.44c-4.15,4.26-6.23,9.61-6.23,16.03s2.11,11.79,6.31,16.06c4.22,4.26,9.79,6.39,16.76,6.39,8.1,0,14.21-3.05,18.38-9.12l-8.76-5.08c-2.13,2.83-5.3,4.24-9.45,4.24-6.45,0-10.4-2.65-11.88-7.98h31.75c.27-1.61,.42-3.1,.42-4.51"/><path class="cls-1" d="M32.31,28.36l9.15,5.35c-3.85,6.69-11.03,11.2-19.23,11.2C9.97,44.91,0,34.84,0,22.46S9.97,.01,22.23,.01C30.43,.01,37.61,4.52,41.46,11.22l-9.15,5.35c-2.02-3.51-5.78-5.87-10.08-5.87-6.43,0-11.66,5.28-11.66,11.77s5.23,11.77,11.66,11.77c4.3,0,8.06-2.37,10.08-5.88"/><polygon class="cls-1" points="248.79 8.37 248.79 1.21 237.92 1.21 237.92 14.72 248.79 8.37"/><path class="cls-1" d="M209.75,6.52c-4,4.34-6.01,9.66-6.01,15.96s2.01,11.6,6.01,15.93c4.02,4.34,8.83,6.52,14.45,6.52s10.45-2.08,13.72-6.22v-15.26c-.5,6.07-5.51,10.82-11.66,10.82-6.48,0-11.7-5.28-11.7-11.82s5.23-11.82,11.7-11.82c4.05,0,7.62,2.08,9.72,5.23l1.94-1.13V6.22c-3.26-4.14-7.83-6.22-13.72-6.22s-10.43,2.18-14.45,6.52"/><path class="cls-1" d="M237.92,43.73h10.87V15.14l-10.87,6.35c.02,.32,.05,.63,.05,.96s-.02,.67-.05,1v20.29Z"/><g><polygon class="cls-1" points="348.49 4.82 347.25 4.82 347.25 8.17 346.26 8.17 346.26 4.82 345.04 4.82 345.04 4.05 348.49 4.05 348.49 4.82"/><polygon class="cls-1" points="350.22 4.05 351.14 6.91 352.05 4.05 353.36 4.05 353.36 8.17 352.36 8.17 352.36 7.21 352.46 5.24 351.46 8.17 350.81 8.17 349.81 5.23 349.91 7.21 349.91 8.17 348.91 8.17 348.91 4.05 350.22 4.05"/></g></g></g></svg>